<?xml version="1.0" encoding="utf-8"?>
<!-- Generator: Adobe Illustrator 24.1.2, SVG Export Plug-In . SVG Version: 6.00 Build 0)  -->
<svg version="1.1" id="Layer_1" xmlns="http://www.w3.org/2000/svg" xmlns:xlink="http://www.w3.org/1999/xlink" x="0px" y="0px"
	 viewBox="0 0 512 512" style="enable-background:new 0 0 512 512;" xml:space="preserve">
<style type="text/css">
	.st0{fill:#F9F9F9;stroke:#A9A9A9;stroke-miterlimit:10;}
	.st1{fill:#A9A9A9;}
</style>
<path class="st0" d="M256,18C124.7,18,18,124.7,18,256s106.7,238,238,238s238-106.7,238-238S387.3,18,256,18z"/>
<path class="st1" d="M275.8,375c0,11-8.9,19.8-19.8,19.8s-19.8-8.9-19.8-19.8s8.9-19.8,19.8-19.8S275.8,364,275.8,375z"/>
<path class="st1" d="M287.4,268.7c-7.1,3.3-11.5,10.3-11.5,18v8.9c0,11-8.8,19.8-19.8,19.8c-11,0-19.8-8.9-19.8-19.8v-8.9
	c0-23.1,13.6-44.3,34.6-54.1c20.2-9.3,34.8-34,34.8-46.1c0-27.3-22.2-49.6-49.6-49.6c-27.3,0-49.6,22.2-49.6,49.6
	c0,11-8.8,19.8-19.8,19.8s-19.8-8.9-19.8-19.8c0-49.2,40.1-89.3,89.3-89.3s89.3,40.1,89.3,89.3C345.3,213.4,322,252.7,287.4,268.7z"
	/>
</svg>
